<svg xmlns="http://www.w3.org/2000/svg" width="34" height="34" viewBox="0 0 34 34" fill="none"><path d="M25.8032 12.8849C26.3514 13.4431 26.3429 14.3398 25.7833 14.8881L19.5132 21.0435C18.4039 22.1315 16.9759 22.6741 15.5465 22.6741C14.1327 22.6741 12.7188 22.1414 11.6138 21.0747L8.92358 18.4298C8.36542 17.8815 8.35833 16.9848 8.90658 16.4266C9.45342 15.867 10.353 15.8599 10.9097 16.4096L13.5915 19.046C14.6908 20.1085 16.4263 20.1028 17.5312 19.0205L23.8 12.8665C24.3567 12.3168 25.2507 12.3268 25.8032 12.8849ZM34 16.9961C34 26.3702 26.3741 33.9961 17 33.9961C7.62592 33.9961 0 26.3702 0 16.9961C0 7.62201 7.62592 -0.00390625 17 -0.00390625C26.3741 -0.00390625 34 7.62201 34 16.9961ZM31.1667 16.9961C31.1667 9.18459 24.8115 2.82943 17 2.82943C9.1885 2.82943 2.83333 9.18459 2.83333 16.9961C2.83333 24.8076 9.1885 31.1628 17 31.1628C24.8115 31.1628 31.1667 24.8076 31.1667 16.9961Z" fill="black"></path></svg>