<svg xmlns="http://www.w3.org/2000/svg" width="54" height="54" viewBox="0 0 54 54" fill="none"><g clip-path="url(#clip0_12900_1083)"><path d="M15.7501 9C18.2319 9 20.2501 6.98175 20.2501 4.5C20.2501 2.01825 18.2319 0 15.7501 0C13.2684 0 11.2501 2.01825 11.2501 4.5C11.2501 6.98175 13.2684 9 15.7501 9ZM15.7501 2.25C16.9899 2.25 18.0001 3.26025 18.0001 4.5C18.0001 5.73975 16.9899 6.75 15.7501 6.75C14.5104 6.75 13.5001 5.73975 13.5001 4.5C13.5001 3.26025 14.5104 2.25 15.7501 2.25ZM27.0001 15.75C29.4819 15.75 31.5001 13.7318 31.5001 11.25C31.5001 8.76825 29.4819 6.75 27.0001 6.75C24.5184 6.75 22.5001 8.76825 22.5001 11.25C22.5001 13.7318 24.5184 15.75 27.0001 15.75ZM27.0001 9C28.2399 9 29.2501 10.0103 29.2501 11.25C29.2501 12.4897 28.2399 13.5 27.0001 13.5C25.7604 13.5 24.7501 12.4897 24.7501 11.25C24.7501 10.0103 25.7604 9 27.0001 9ZM38.2501 9C40.7319 9 42.7501 6.98175 42.7501 4.5C42.7501 2.01825 40.7319 0 38.2501 0C35.7684 0 33.7501 2.01825 33.7501 4.5C33.7501 6.98175 35.7684 9 38.2501 9ZM38.2501 2.25C39.4899 2.25 40.5001 3.26025 40.5001 4.5C40.5001 5.73975 39.4899 6.75 38.2501 6.75C37.0104 6.75 36.0001 5.73975 36.0001 4.5C36.0001 3.26025 37.0104 2.25 38.2501 2.25ZM54.0001 14.625V37.3522C54.0001 41.859 52.2451 46.098 49.0569 49.284L44.6694 53.6715C44.4489 53.892 44.1609 54 43.8729 54C43.5849 54 43.2969 53.8898 43.0764 53.6715C42.6376 53.2327 42.6376 52.5195 43.0764 52.0807L47.4639 47.6933C50.2269 44.9303 51.7479 41.2583 51.7479 37.3522V14.625C51.7479 12.7642 50.2336 11.25 48.3729 11.25C46.5121 11.25 44.9979 12.7642 44.9979 14.625C44.9979 14.625 44.9776 32.7083 44.9731 32.7533C44.9439 33.993 44.5254 35.226 43.6839 36.2272L37.7484 42.4058C37.5279 42.6353 37.2331 42.75 36.9384 42.75C36.6571 42.75 36.3759 42.6465 36.1576 42.435C35.7099 42.0053 35.6964 41.292 36.1261 40.8442L42.0121 34.722C42.5206 34.1145 42.7681 33.3382 42.7501 32.5575V32.5485C42.7299 31.7677 42.4464 30.987 41.8906 30.366C40.6531 28.9868 38.5224 28.8675 37.1364 30.105L30.9961 35.757C29.8239 36.837 28.9149 38.1285 28.2331 39.564C28.8879 41.2402 29.2501 43.0335 29.2501 44.865V52.8727C29.2501 53.4938 28.7461 53.9977 28.1251 53.9977C27.5041 53.9977 27.0001 53.4938 27.0001 52.8727V44.865C27.0001 41.4135 25.5444 38.0947 23.0041 35.7593L16.8526 30.0982C15.4824 28.8697 13.3471 28.9867 12.1096 30.3682C10.9981 31.608 10.9689 33.5047 12.0376 34.7782L17.8719 40.842C18.3016 41.2897 18.2881 42.003 17.8404 42.4327C17.3904 42.8647 16.6794 42.849 16.2496 42.4012L10.3636 36.279C9.50861 35.2643 9.0451 34.0358 8.99786 32.805C8.98661 32.742 8.99786 14.6205 8.99786 14.6205C8.99786 12.7598 7.48361 11.2455 5.62286 11.2455C3.76211 11.2455 2.24786 12.7598 2.24786 14.6205V37.3478C2.24786 41.2538 3.76886 44.928 6.53186 47.6888L10.9194 52.0763C11.3581 52.515 11.3581 53.2282 10.9194 53.667C10.6989 53.8875 10.4109 53.9955 10.1229 53.9955C9.83486 53.9955 9.54685 53.8853 9.32635 53.667L4.93886 49.2795C1.75061 46.0913 -0.00439453 41.8545 -0.00439453 37.3478V14.625C-0.00439453 11.5245 2.52011 9 5.62061 9C8.20586 9 10.3659 10.7618 11.0206 13.1423C12.2671 11.9745 13.9321 11.25 15.7456 11.25C16.6749 11.25 17.5749 11.43 18.4276 11.7855C19.0014 12.024 19.2714 12.6833 19.0329 13.257C18.7944 13.8308 18.1374 14.1052 17.5614 13.8622C16.9854 13.6237 16.3734 13.5 15.7434 13.5C13.5834 13.5 11.7069 14.9805 11.2434 17.028V28.125C13.3426 26.5522 16.3306 26.6198 18.3579 28.4333L24.5206 34.1055C25.4881 34.9943 26.3049 36.0157 26.9911 37.1115C27.6796 36.009 28.4986 34.9965 29.4661 34.1055L35.6176 28.4445C37.6539 26.6198 40.6441 26.5522 42.7434 28.125V17.028C42.2799 14.9805 40.4034 13.5 38.2434 13.5C37.6134 13.5 37.0014 13.6215 36.4254 13.8622C35.8561 14.103 35.1946 13.8308 34.9539 13.257C34.7154 12.6833 34.9854 12.024 35.5591 11.7855C36.4119 11.43 37.3141 11.25 38.2411 11.25C40.0546 11.25 41.7196 11.9745 42.9661 13.1423C43.6231 10.764 45.7831 9 48.3661 9C51.4666 9 53.9911 11.5245 53.9911 14.625H54.0001ZM18.8709 23.1322C20.4144 19.9665 23.5711 18 27.1126 18C30.6541 18 33.8131 19.9665 35.3544 23.1322C35.6266 23.6925 35.3071 24.8377 34.3441 24.75C33.9256 24.75 33.5274 24.5182 33.3316 24.1178C32.1684 21.7305 29.7856 20.25 27.1104 20.25C24.4351 20.25 22.0524 21.7327 20.8891 24.1178C20.6169 24.6757 19.9464 24.912 19.3861 24.6353C18.8281 24.363 18.5964 23.6903 18.8686 23.1322H18.8709Z" fill="black"></path></g><defs><clipPath id="clip0_12900_1083"><rect width="54" height="54" fill="white"></rect></clipPath></defs></svg>