<svg xmlns="http://www.w3.org/2000/svg" width="80" height="83" viewBox="0 0 80 83" fill="none"><ellipse cx="40" cy="41.5" rx="40" ry="41.5" fill="#FF874B"></ellipse><g clip-path="url(#clip0_13014_1104)"><path d="M56.875 18.5H53.5V15.125C53.5 14.504 52.996 14 52.375 14C51.754 14 51.25 14.504 51.25 15.125V18.5H28.75V15.125C28.75 14.504 28.246 14 27.625 14C27.004 14 26.5 14.504 26.5 15.125V18.5H23.125C17.5428 18.5 13 23.0428 13 28.625V57.875C13 63.4572 17.5428 68 23.125 68H32.125C32.746 68 33.25 67.496 33.25 66.875C33.25 66.254 32.746 65.75 32.125 65.75H23.125C18.7825 65.75 15.25 62.2175 15.25 57.875V34.25H65.875C66.496 34.25 67 33.746 67 33.125V28.625C67 23.0428 62.4572 18.5 56.875 18.5ZM64.75 32H15.25V28.625C15.25 24.2825 18.7825 20.75 23.125 20.75H56.875C61.2175 20.75 64.75 24.2825 64.75 28.625V32ZM57.397 40.397L40.0562 57.7377C38.569 59.225 37.75 61.2027 37.75 63.3065V66.875C37.75 67.496 38.254 68 38.875 68H42.4435C44.5473 68 46.525 67.181 48.0122 65.6938L65.353 48.353C66.415 47.291 67 45.878 67 44.375C67 42.872 66.415 41.459 65.353 40.397C63.2313 38.273 59.5187 38.273 57.397 40.397ZM63.76 46.76L46.4193 64.1007C45.3573 65.1628 43.9443 65.7477 42.4412 65.7477H39.9977V63.3042C39.9977 61.8013 40.5828 60.3905 41.6448 59.3263L58.9855 41.9855C60.259 40.712 62.4842 40.712 63.7578 41.9855C64.3945 42.6222 64.7455 43.4705 64.7455 44.3727C64.7455 45.275 64.3967 46.121 63.76 46.76ZM24.2478 44.3727C24.2478 43.7517 24.7517 43.2477 25.3728 43.2477H45.625C46.246 43.2477 46.75 43.7517 46.75 44.3727C46.75 44.9937 46.246 45.4977 45.625 45.4977H25.375C24.754 45.4977 24.2478 44.9937 24.2478 44.3727ZM35.4977 55.6227C35.4977 56.2438 34.9937 56.7477 34.3727 56.7477H25.375C24.754 56.7477 24.25 56.2438 24.25 55.6227C24.25 55.0018 24.754 54.4977 25.375 54.4977H34.375C34.996 54.4977 35.5 55.0018 35.5 55.6227H35.4977Z" fill="white"></path></g><defs><clipPath id="clip0_13014_1104"><rect width="54" height="54" fill="white" transform="translate(13 14)"></rect></clipPath></defs></svg>