<svg xmlns="http://www.w3.org/2000/svg" width="80" height="83" viewBox="0 0 80 83" fill="none"><ellipse cx="40" cy="41.5" rx="40" ry="41.5" fill="#FF874B"></ellipse><path d="M58 62.2499V68.9999H55.75V62.2499C55.75 58.5284 52.7215 55.4999 49 55.4999H31C27.2785 55.4999 24.25 58.5284 24.25 62.2499V68.9999H22V62.2499C22 57.2864 26.0365 53.2499 31 53.2499H49C53.9635 53.2499 58 57.2864 58 62.2499ZM62.5 25.1249V41.9999H60.25V26.2139L53.5 29.5709V35.2499C53.5 42.6952 47.4453 48.7499 40 48.7499C32.5548 48.7499 26.5 42.6952 26.5 35.2499V29.5709L17.5608 25.1249L36.1998 15.8527C38.4678 14.7254 41.521 14.7232 43.7958 15.8504L62.437 25.1249H62.5ZM51.25 30.6892L43.798 34.3949C42.6618 34.9597 41.3298 35.2432 40 35.2432C38.6703 35.2432 37.336 34.9619 36.202 34.3949L28.75 30.6892V35.2477C28.75 41.4509 33.7968 46.4977 40 46.4977C46.2033 46.4977 51.25 41.4509 51.25 35.2477V30.6892ZM57.388 25.1249L42.799 17.8664C41.1498 17.0519 38.848 17.0497 37.2033 17.8664L22.6143 25.1227L37.2033 32.3812C38.8503 33.2002 41.1498 33.2002 42.7968 32.3812L57.388 25.1249Z" fill="white"></path></svg>