<svg xmlns="http://www.w3.org/2000/svg" width="80" height="83" viewBox="0 0 80 83" fill="none"><ellipse cx="40" cy="41.5" rx="40" ry="41.5" fill="#FF874B"></ellipse><g clip-path="url(#clip0_12913_1089)"><path d="M15.25 48.875C15.25 50.7425 16.7575 52.25 18.625 52.25H38.875C39.505 52.25 40 52.745 40 53.375C40 54.005 39.505 54.5 38.875 54.5H18.625C15.52 54.5 13 51.98 13 48.875C13 46.1525 14.935 43.88 17.5 43.3625V24.125C17.5 18.545 22.045 14 27.625 14H52.375C57.955 14 62.5 18.545 62.5 24.125V28.625C62.5 29.255 62.005 29.75 61.375 29.75C60.745 29.75 60.25 29.255 60.25 28.625V24.125C60.25 19.7825 56.7175 16.25 52.375 16.25H27.625C23.2825 16.25 19.75 19.7825 19.75 24.125V43.25H32.125C32.4175 43.25 32.71 43.3625 32.9125 43.5875L34.825 45.5H38.8525C39.4825 45.5 39.9775 45.995 39.9775 46.625C39.9775 47.255 39.4825 47.75 38.8525 47.75H34.3525C34.06 47.75 33.7675 47.6375 33.565 47.4125L31.6525 45.5H18.625C16.7575 45.5 15.25 47.0075 15.25 48.875ZM67 42.125V60.125C67 64.4675 63.4675 68 59.125 68H52.375C48.0325 68 44.5 64.4675 44.5 60.125V42.125C44.5 37.7825 48.0325 34.25 52.375 34.25H59.125C63.4675 34.25 67 37.7825 67 42.125ZM64.75 42.125C64.75 39.02 62.23 36.5 59.125 36.5H52.375C49.27 36.5 46.75 39.02 46.75 42.125V60.125C46.75 63.23 49.27 65.75 52.375 65.75H59.125C62.23 65.75 64.75 63.23 64.75 60.125V42.125Z" fill="white"></path></g><defs><clipPath id="clip0_12913_1089"><rect width="54" height="54" fill="white" transform="translate(13 14)"></rect></clipPath></defs></svg>