<svg xmlns="http://www.w3.org/2000/svg" width="80" height="83" viewBox="0 0 80 83" fill="none"><ellipse cx="40" cy="41.5" rx="40" ry="41.5" fill="#FF874B"></ellipse><path d="M57.6152 49.5798C57.9707 48.3446 58.0923 46.9226 57.82 45.7256C57.55 44.5398 58.0945 43.2776 59.1722 42.5823C60.1802 41.9298 61.0015 41.0433 61.609 39.9453C62.1828 38.9103 62.482 37.7178 62.4775 36.5073C62.482 35.2878 62.1828 34.0953 61.609 33.0603C60.9992 31.9623 60.1802 31.0758 59.17 30.4233C58.0922 29.7281 57.55 28.4658 57.8177 27.2823C58.0922 26.0853 58.0518 24.8501 57.6963 23.6148C57.0303 21.2973 55.1785 19.4478 52.8655 18.7863C51.6347 18.4353 50.4017 18.3926 49.2025 18.6626C48.0257 18.9348 46.7568 18.3903 46.0615 17.3126C45.409 16.3046 44.5225 15.4856 43.4268 14.8758C41.3185 13.7081 38.7017 13.7081 36.5935 14.8758C35.4955 15.4856 34.609 16.3068 33.9588 17.3148C33.2635 18.3926 31.9967 18.9371 30.8177 18.6648C29.6185 18.3948 28.3855 18.4353 27.1547 18.7886C24.8395 19.4523 22.9878 21.3018 22.324 23.6193C21.9707 24.8523 21.928 26.0853 22.2002 27.2846C22.4702 28.4681 21.928 29.7303 20.8503 30.4256C19.84 31.0781 19.0188 31.9668 18.4135 33.0603C17.8398 34.0953 17.5405 35.2878 17.545 36.5006C17.5405 37.7223 17.8398 38.9148 18.4135 39.9476C19.021 41.0433 19.84 41.9321 20.8525 42.5846C21.9303 43.2798 22.4725 44.5421 22.2025 45.7256C21.9302 46.9248 22.0608 48.3603 22.414 49.5956L13 59.0028H22.0045V68.0366L34.1343 55.9068C34.7688 56.8091 35.5788 57.5696 36.5913 58.1321C37.6443 58.7148 38.8255 59.0073 40.0068 59.0073C41.188 59.0073 42.3693 58.7148 43.4245 58.1298C44.4415 57.5651 45.256 56.8023 45.8905 55.8933L58.0337 68.0366V59.0028H67.0382L57.6152 49.5798ZM24.2567 62.6051V56.7528H18.4338L23.5233 51.6611C24.4345 52.8603 25.6788 53.7963 27.1525 54.2193C28.3855 54.5726 29.6207 54.6153 30.8155 54.3431C31.3465 54.2238 31.8865 54.2868 32.3928 54.4691L24.2567 62.6051ZM44.1715 54.4736C43.7215 55.1688 43.105 55.7381 42.3355 56.1633C40.9225 56.9486 39.0955 56.9486 37.6848 56.1633C36.913 55.7381 36.2965 55.1688 35.8488 54.4736C34.8543 52.9301 33.1668 52.0256 31.423 52.0256C31.054 52.0256 30.685 52.0661 30.3183 52.1493C29.4948 52.3361 28.6375 52.3068 27.7735 52.0571C26.221 51.6138 24.9318 50.3223 24.4862 48.7721C24.2388 47.9058 24.2072 47.0486 24.394 46.2251C24.871 44.1213 23.9372 41.9006 22.0697 40.6946C21.3722 40.2446 20.8053 39.6258 20.38 38.8563C19.993 38.1588 19.7905 37.3466 19.7928 36.5006C19.7905 35.6613 19.9908 34.8513 20.38 34.1516C20.8053 33.3821 21.3745 32.7656 22.0697 32.3156C23.9395 31.1096 24.8732 28.8888 24.394 26.7851C24.2072 25.9616 24.2388 25.1043 24.4862 24.2381C24.9318 22.6856 26.221 21.3963 27.7735 20.9508C28.6397 20.7056 29.497 20.6718 30.3183 20.8586C32.4198 21.3378 34.645 20.4041 35.8488 18.5343C36.2965 17.8391 36.913 17.2698 37.6825 16.8446C39.0955 16.0593 40.9203 16.0616 42.3333 16.8446C43.1028 17.2721 43.7215 17.8413 44.1693 18.5343C45.373 20.4041 47.5937 21.3311 49.6997 20.8586C50.5232 20.6718 51.3805 20.7033 52.2445 20.9508C53.797 21.3941 55.0885 22.6856 55.534 24.2358C55.7815 25.1021 55.813 25.9593 55.624 26.7828C55.147 28.8866 56.083 31.1073 57.9482 32.3133C58.6435 32.7633 59.2127 33.3798 59.638 34.1516C60.025 34.8513 60.2275 35.6636 60.2253 36.5073C60.2275 37.3443 60.0272 38.1566 59.638 38.8541C59.2127 39.6258 58.6435 40.2423 57.9482 40.6923C56.0807 41.8961 55.1447 44.1191 55.624 46.2228C55.8107 47.0463 55.7815 47.9036 55.5317 48.7676C55.0863 50.3201 53.7948 51.6116 52.2422 52.0548C51.3783 52.3023 50.521 52.3338 49.6975 52.1471C47.5915 51.6746 45.3708 52.6038 44.167 54.4713L44.1715 54.4736ZM55.786 56.7551V62.6073L47.6455 54.4668C48.1473 54.2913 48.6828 54.2261 49.2048 54.3476C50.4017 54.6176 51.6348 54.5793 52.8677 54.2238C54.346 53.8008 55.5947 52.8581 56.506 51.6521L61.609 56.7551H55.786ZM50.593 31.6766L40.1485 42.1211C39.4172 42.8546 38.443 43.2573 37.4058 43.2573C36.3685 43.2573 35.3965 42.8546 34.663 42.1211L28.3495 35.8076L29.9403 34.2168L36.2537 40.5303C36.868 41.1446 37.9413 41.1446 38.5555 40.5303L49 30.0858L50.5907 31.6766H50.593Z" fill="white"></path></svg>